<svg id="svg" xmlns="http://www.w3.org/2000/svg" xmlns:xlink="http://www.w3.org/1999/xlink" width="400" height="400"
  viewBox="0, 0, 400,400">
  <g id="svgg">
    <path id="path0"
      d="M20.797 5.715 C 13.159 14.155,12.869 329.050,20.490 339.930 L 25.354 346.875 199.693 346.875 C 364.620 346.875,374.311 346.567,379.203 341.160 C 387.574 331.910,387.059 12.772,378.660 5.172 C 369.402 -3.206,28.402 -2.689,20.797 5.715 M350.000 146.875 L 350.000 265.625 200.000 265.625 L 50.000 265.625 50.000 146.875 L 50.000 28.125 200.000 28.125 L 350.000 28.125 350.000 146.875 M325.535 292.672 C 333.745 300.102,333.061 317.127,324.305 323.260 C 314.438 330.171,307.152 329.311,297.996 320.155 C 279.811 301.970,306.442 275.393,325.535 292.672 M61.194 367.377 C 56.043 372.528,55.033 381.081,58.187 392.845 L 60.039 399.753 196.804 399.935 L 333.568 400.118 337.653 390.255 C 341.093 381.951,341.015 379.102,337.156 372.227 L 332.574 364.063 199.356 363.248 C 81.327 362.526,65.574 362.997,61.194 367.377 "
      stroke="none" fill="#000000" fill-rule="evenodd"></path>
  </g>
</svg>