<svg id="svg" xmlns="http://www.w3.org/2000/svg" xmlns:xlink="http://www.w3.org/1999/xlink" width="400"
  height="348.2352941176471" viewBox="0, 0, 400,348.2352941176471">
  <g id="svgg">
    <path id="path0"
      d="M194.941 5.879 C 189.847 6.053,186.131 6.319,181.765 6.824 C 180.729 6.944,179.300 7.095,178.588 7.161 C 176.622 7.341,167.511 8.882,164.588 9.529 C 163.165 9.843,161.735 10.153,161.412 10.217 C 156.157 11.252,144.580 14.909,136.941 17.946 C 134.935 18.744,133.241 19.408,133.176 19.423 C 132.303 19.619,121.577 24.928,117.589 27.139 C 87.422 43.862,62.191 70.379,47.254 101.059 C 46.435 102.741,45.659 104.195,45.529 104.291 C 45.400 104.386,45.362 104.465,45.445 104.467 C 45.528 104.469,45.041 105.715,44.363 107.235 C 24.947 150.760,24.972 201.729,44.430 245.676 C 45.956 249.123,48.842 254.965,50.198 257.353 C 50.657 258.162,50.982 258.824,50.919 258.824 C 50.856 258.824,50.920 258.956,51.060 259.118 C 51.200 259.279,52.362 261.187,53.642 263.356 C 62.704 278.717,74.101 292.428,88.000 304.694 C 89.229 305.779,90.394 306.810,90.588 306.987 C 102.522 317.825,125.277 330.783,143.647 337.200 C 152.496 340.291,157.549 337.442,157.875 329.176 C 157.982 326.458,157.709 298.572,157.574 298.437 C 157.548 298.411,156.204 298.636,154.587 298.939 C 131.540 303.247,113.195 297.962,103.550 284.235 C 101.911 281.904,98.183 274.203,98.354 273.505 C 98.376 273.418,98.305 273.282,98.197 273.203 C 98.088 273.124,97.691 272.440,97.312 271.684 C 93.503 264.064,88.083 257.668,81.882 253.473 C 72.551 247.162,72.599 242.886,82.000 242.962 C 92.330 243.046,102.020 249.621,109.708 261.765 C 115.275 270.557,122.137 275.760,131.294 278.131 C 137.403 279.713,147.950 278.603,155.784 275.553 L 158.274 274.584 158.914 271.468 C 160.442 264.030,163.321 257.930,167.402 253.483 L 168.957 251.789 168.184 251.663 C 167.759 251.593,165.824 251.320,163.882 251.056 C 161.941 250.792,160.200 250.521,160.013 250.454 C 159.826 250.387,159.191 250.277,158.601 250.210 C 152.969 249.565,142.606 246.773,135.968 244.112 C 110.807 234.025,96.824 215.153,92.736 185.765 C 92.484 183.953,92.278 182.312,92.279 182.118 C 92.279 181.924,92.164 180.759,92.023 179.529 C 89.545 157.866,94.653 138.867,106.923 124.106 L 108.986 121.624 108.506 120.400 C 104.435 110.038,104.874 90.827,109.431 79.882 C 109.593 79.494,109.738 79.124,109.755 79.059 C 110.262 77.025,110.617 76.520,111.644 76.366 C 121.052 74.955,136.679 80.625,153.975 91.725 L 157.480 93.974 160.917 93.108 C 166.839 91.616,176.407 89.848,180.235 89.539 C 181.076 89.471,182.029 89.363,182.353 89.299 C 194.092 86.960,222.524 88.893,239.574 93.189 C 243.063 94.068,242.639 94.126,245.210 92.427 C 262.379 81.081,278.568 75.062,288.401 76.366 L 289.591 76.524 290.790 80.085 C 295.540 94.193,295.815 112.426,291.408 120.949 C 291.112 121.521,291.187 121.653,293.089 123.891 C 301.376 133.646,306.662 146.081,308.136 159.285 C 308.471 162.286,308.649 174.815,308.363 175.277 C 308.301 175.379,308.236 176.086,308.219 176.848 C 308.010 186.272,305.149 199.630,301.521 208.125 C 299.708 212.369,296.329 218.704,295.564 219.294 C 295.480 219.359,295.269 219.688,295.096 220.025 C 292.536 225.002,283.431 233.588,275.780 238.241 C 268.121 242.899,255.740 247.498,246.608 249.079 C 246.274 249.137,244.041 249.539,241.647 249.973 C 239.253 250.407,235.839 250.949,234.060 251.178 L 230.825 251.594 232.298 253.032 C 236.897 257.526,240.289 265.090,241.806 274.235 C 242.203 276.629,242.237 278.880,242.261 304.235 C 242.285 329.232,242.322 331.740,242.681 332.698 C 244.726 338.165,249.706 339.555,257.294 336.779 C 264.923 333.988,272.093 330.864,278.235 327.655 C 280.306 326.573,282.582 325.388,283.294 325.020 C 284.006 324.653,284.641 324.293,284.706 324.220 C 284.771 324.147,285.776 323.520,286.941 322.826 C 306.034 311.463,322.804 296.386,336.343 278.412 C 336.854 277.732,337.357 277.176,337.460 277.176 C 337.563 277.176,337.647 277.064,337.647 276.926 C 337.647 276.789,338.374 275.650,339.263 274.397 C 340.152 273.143,341.598 271.006,342.477 269.647 C 343.356 268.288,344.164 267.141,344.273 267.098 C 344.381 267.055,344.471 266.905,344.471 266.765 C 344.471 266.530,346.512 263.090,346.810 262.823 C 346.882 262.759,347.141 262.335,347.384 261.882 C 347.628 261.429,348.460 259.894,349.234 258.471 C 355.568 246.810,363.125 228.019,364.610 220.235 C 364.671 219.912,364.872 219.118,365.055 218.471 C 365.476 216.981,366.800 211.189,366.950 210.177 C 367.012 209.757,367.272 208.328,367.527 207.001 C 368.014 204.465,368.896 198.742,369.076 196.941 C 369.135 196.359,369.337 194.347,369.525 192.471 C 370.680 180.978,370.497 166.550,369.058 155.520 C 368.854 153.960,368.648 152.292,368.599 151.813 C 367.073 136.763,358.950 111.760,350.638 96.529 C 349.985 95.332,349.499 94.353,349.558 94.353 C 349.617 94.353,349.553 94.221,349.414 94.059 C 349.276 93.897,347.957 91.735,346.482 89.255 C 345.008 86.775,342.946 83.456,341.901 81.881 C 340.855 80.306,340.000 78.929,340.000 78.822 C 340.000 78.715,339.912 78.592,339.805 78.549 C 339.698 78.506,338.728 77.253,337.649 75.765 C 326.736 60.713,312.208 46.564,296.471 35.658 C 295.371 34.896,294.435 34.184,294.392 34.077 C 294.349 33.970,294.221 33.882,294.109 33.882 C 293.996 33.882,292.814 33.175,291.481 32.310 C 290.149 31.446,287.047 29.595,284.588 28.198 C 282.129 26.801,279.961 25.523,279.770 25.358 C 279.580 25.194,279.391 25.092,279.351 25.132 C 279.311 25.173,278.038 24.575,276.522 23.803 C 269.994 20.480,261.200 16.792,254.824 14.702 C 252.947 14.087,251.279 13.479,251.118 13.351 C 250.956 13.224,250.824 13.177,250.824 13.247 C 250.824 13.318,250.003 13.118,249.000 12.804 C 232.532 7.644,213.742 5.237,194.941 5.879 M90.278 248.109 C 89.157 249.229,90.626 251.297,92.538 251.291 C 93.783 251.286,94.074 251.100,94.255 250.195 C 94.584 248.552,91.469 246.918,90.278 248.109 M97.229 254.013 C 96.109 254.798,96.938 257.382,98.583 258.233 C 100.231 259.085,101.816 258.311,101.567 256.775 C 101.213 254.595,98.691 252.989,97.229 254.013 M103.947 262.765 C 103.129 263.696,103.246 265.575,104.193 266.708 C 106.701 269.708,109.895 268.017,108.227 264.571 C 107.338 262.736,104.882 261.699,103.947 262.765 M112.345 272.224 C 110.430 273.000,111.240 276.389,113.649 277.681 C 114.842 278.321,116.351 278.259,117.070 277.540 C 118.990 275.619,115.012 271.143,112.345 272.224 M123.647 279.814 C 121.838 280.851,122.419 283.034,124.800 284.143 C 128.083 285.671,131.053 283.500,128.953 281.108 C 127.691 279.671,125.028 279.021,123.647 279.814 M151.351 280.496 C 149.054 281.633,148.709 284.004,150.717 284.843 C 153.685 286.083,157.715 283.502,156.464 281.163 C 155.820 279.961,153.140 279.611,151.351 280.496 M138.208 282.097 C 135.113 283.503,136.354 286.669,139.999 286.665 C 142.092 286.663,143.624 285.591,143.624 284.128 C 143.624 282.153,140.589 281.016,138.208 282.097 "
      stroke="none" fill="#000000" fill-rule="evenodd"></path>
  </g>
</svg>