<svg id="svg" xmlns="http://www.w3.org/2000/svg" xmlns:xlink="http://www.w3.org/1999/xlink" width="400" height="400"
  viewBox="0, 0, 400,400">
  <g id="svgg">
    <path id="path0"
      d="M44.800 200.000 L 44.800 400.000 200.400 400.000 L 356.000 400.000 356.000 200.000 L 356.000 0.000 200.400 0.000 L 44.800 0.000 44.800 200.000 M329.600 199.600 L 329.600 375.200 199.200 375.200 L 68.800 375.200 68.800 199.600 L 68.800 24.000 199.200 24.000 L 329.600 24.000 329.600 199.600 M191.810 66.852 C 185.568 70.239,185.673 81.928,191.974 85.186 C 195.503 87.012,289.297 87.012,292.826 85.186 C 299.218 81.881,299.218 70.119,292.826 66.814 C 289.341 65.011,195.137 65.047,191.810 66.852 M96.610 122.052 C 90.368 125.439,90.473 137.128,96.774 140.386 C 100.331 142.226,289.269 142.226,292.826 140.386 C 299.218 137.081,299.218 125.319,292.826 122.014 C 289.313 120.197,99.961 120.234,96.610 122.052 M96.610 172.452 C 90.368 175.839,90.473 187.528,96.774 190.786 C 100.331 192.626,289.269 192.626,292.826 190.786 C 299.218 187.481,299.218 175.719,292.826 172.414 C 289.313 170.597,99.961 170.634,96.610 172.452 M96.610 225.252 C 90.368 228.639,90.473 240.328,96.774 243.586 C 100.331 245.426,289.269 245.426,292.826 243.586 C 299.218 240.281,299.218 228.519,292.826 225.214 C 289.313 223.397,99.961 223.434,96.610 225.252 M96.610 277.252 C 90.368 280.639,90.473 292.328,96.774 295.586 C 100.331 297.426,289.269 297.426,292.826 295.586 C 299.218 292.281,299.218 280.519,292.826 277.214 C 289.313 275.397,99.961 275.434,96.610 277.252 M140.610 320.452 C 134.368 323.839,134.473 335.528,140.774 338.786 C 142.795 339.832,149.789 340.000,191.200 340.000 C 232.611 340.000,239.605 339.832,241.626 338.786 C 248.018 335.481,248.018 323.719,241.626 320.414 C 238.141 318.611,143.937 318.647,140.610 320.452 "
      stroke="none" fill="#000000" fill-rule="evenodd"></path>
  </g>
</svg>